# xmcd CD database file
#
# Track frame offsets:
#	150
#	25852
#	49345
#	66625
#	91727
#	122770
#	143450
#	164925
#	185410
#	209240
#	239509
#	269470
#
# Disc length: 3849 seconds
#
# Revision: 0
# Processed by: cddbd v1.5.1PL0 Copyright (c) Steve Scherf et al.
# Submitted via: CDex 1.51
#
DISCID=bd0f070c
DTITLE=Cecilia Smith Quartet - High Standards
DYEAR=1996
DGENRE=Jazz
TTITLE0=Coming Forth
TTITLE1=Soul Eyes
TTITLE2=Mourning Before Grace
TTITLE3=Destination Home
TTITLE4=Bags' Groove
TTITLE5=Highway One
TTITLE6=Falling Grace
TTITLE7=Rhythm and Groove
TTITLE8=I Can't Make You Love Me
TTITLE9=Black Is the Color of My True Love's Hair
TTITLE10=Melancholia
TTITLE11=High Standards
EXTD=YEAR: 1996
EXTT0=
EXTT1=
EXTT2=
EXTT3=
EXTT4=
EXTT5=
EXTT6=
EXTT7=
EXTT8=
EXTT9=
EXTT10=
EXTT11=
PLAYORDER=
